<?xml version="1.0" standalone="no"?>
<!DOCTYPE svg PUBLIC "-//W3C//DTD SVG 20010904//EN"
 "http://www.w3.org/TR/2001/REC-SVG-20010904/DTD/svg10.dtd">
<svg version="1.0" xmlns="http://www.w3.org/2000/svg"
 width="512.000000pt" height="512.000000pt" viewBox="0 0 512.000000 512.000000"
 preserveAspectRatio="xMidYMid meet">
<metadata>
Created by potrace 1.11, written by Peter Selinger 2001-2013
</metadata>
<g transform="translate(0.000000,512.000000) scale(0.100000,-0.100000)"
fill="#000000" stroke="none">
<path d="M2167 3933 c-25 -54 -76 -161 -113 -238 -36 -77 -83 -176 -104 -220
-21 -44 -61 -129 -90 -190 -29 -60 -72 -150 -95 -200 -23 -49 -64 -135 -90
-190 -26 -55 -70 -147 -97 -205 -28 -58 -63 -132 -78 -165 -15 -33 -64 -136
-109 -229 -45 -92 -81 -169 -81 -171 0 -1 -35 -76 -79 -166 -43 -90 -116 -243
-161 -339 -45 -96 -105 -222 -132 -280 -28 -58 -68 -142 -89 -188 l-38 -82
404 0 c223 0 405 3 405 8 1 9 57 72 168 186 171 175 427 370 625 475 43 23 86
46 95 51 71 39 283 122 397 155 48 13 90 27 93 29 4 2 25 7 47 10 22 4 48 9
57 12 33 10 165 32 238 40 25 3 55 7 67 10 12 2 24 0 28 -6 7 -11 -14 -182
-24 -193 -4 -4 -27 -10 -52 -13 -24 -3 -69 -10 -99 -15 -30 -6 -69 -13 -86
-15 -66 -11 -129 -32 -126 -43 2 -11 53 -118 165 -351 28 -58 51 -107 52 -110
1 -3 26 -56 55 -117 l54 -113 398 0 c237 0 398 4 398 9 0 5 -29 67 -64 138
-35 70 -87 178 -116 238 -29 61 -81 168 -117 239 -35 71 -61 131 -58 134 3 3
45 24 93 47 l88 42 70 -32 c38 -18 174 -82 302 -143 262 -125 239 -125 221 8
-5 41 -12 95 -14 120 -3 25 -7 61 -10 80 -3 19 -7 51 -9 70 -8 63 -17 134 -22
165 -14 99 -13 108 6 133 18 22 119 131 311 337 105 111 119 127 119 135 0 4
-21 11 -47 15 -27 4 -104 18 -173 31 -68 14 -138 27 -155 30 -16 2 -37 7 -45
9 -8 2 -28 7 -45 10 -196 34 -179 27 -213 88 -16 29 -46 84 -67 122 -21 39
-41 75 -45 80 -4 6 -31 55 -61 110 -29 55 -63 118 -76 140 -13 22 -26 48 -29
58 -4 10 -11 16 -16 15 -6 -2 -80 -133 -167 -291 l-156 -287 -51 -10 c-28 -6
-62 -13 -77 -15 -15 -3 -38 -7 -52 -10 -14 -3 -37 -7 -52 -10 -16 -3 -39 -8
-53 -10 -88 -18 -70 -37 -179 187 -54 112 -146 300 -204 418 -58 118 -143 293
-188 387 l-84 173 -261 0 -260 0 -47 -97z m362 -1095 c16 -35 54 -116 86 -181
31 -65 54 -124 52 -131 -3 -7 -34 -23 -69 -35 -34 -13 -132 -56 -215 -96 -84
-41 -153 -70 -153 -66 0 3 45 104 99 222 55 119 113 246 130 282 16 37 32 67
36 67 3 0 19 -28 34 -62z"/>
</g>
</svg>
