<?xml version="1.0" encoding="utf-8"?>
<!-- Generator: Adobe Illustrator 15.1.0, SVG Export Plug-In . SVG Version: 6.00 Build 0)  -->
<!DOCTYPE svg PUBLIC "-//W3C//DTD SVG 1.1//EN" "http://www.w3.org/Graphics/SVG/1.1/DTD/svg11.dtd">
<svg version="1.1" xmlns="http://www.w3.org/2000/svg" xmlns:xlink="http://www.w3.org/1999/xlink" x="0px" y="0px"
	 width="64.418px" height="38.854px" viewBox="0 0 64.418 38.854" enable-background="new 0 0 64.418 38.854" xml:space="preserve">
<g id="Forma_2_1_" enable-background="new    ">
	<path fill-rule="evenodd" clip-rule="evenodd" fill="#ffffff" d="M59.502,31.504l-1.09-8.788l6.006-6.464l-8.628-1.671
		l-4.242-7.755l-4.242,7.755l-4.762,0.922L34.998,0h-6.83L9.779,38.854h2.675h7.833c7.959-9.632,17.501-12.282,23.988-12.838
		l-0.337,2.718c-1.521,0.169-3.181,0.448-4.941,0.908l4.408,9.212h10.508l-4.84-9.941l2.476-1.171L59.502,31.504z M28.258,22.554
		l3.587-7.853l2.439,5.099C32.187,20.546,30.17,21.484,28.258,22.554z"/>
</g>
<g id="Forma_3_3_" display="none" enable-background="new    ">
</g>
<g id="Forma_3_2_" enable-background="new    ">
</g>
<g id="Forma_1_1_" enable-background="new    ">
</g>
</svg>
